<svg xmlns="http://www.w3.org/2000/svg" viewBox="0 0 540.582 1024">
  <title>icon</title>
  <circle cx="269.598" cy="466.833" r="54.899" style="fill: #24b588"/>
  <path d="M908.905,601.863q0-73.307-33.693-132.44-33.7-59.1-94.6-93.41-60.921-34.284-138.94-34.288-78.043,0-140.119,34.288-62.084,34.308-96.956,94-34.9,59.721-34.89,131.847,0,78.044,34.89,137.166,34.853,59.139,96.363,91.636a271.993,271.993,0,0,0,61.079,23.244l47.4-84.415a145.955,145.955,0,0,1-51.128-19.825q-36.078-22.457-56.756-61.49-20.7-39.022-20.694-85.137t20.694-85.137q20.674-39.022,56.17-62.075,35.47-23.062,80.4-23.062,68.567,0,113.51,49.076t44.936,121.2c0,43.109-12.974,73.953-44.648,127.147L547.31,1101.037,638.075,1152s232.2-406.387,237.137-417.112C901.845,677,908.905,650.749,908.905,601.863Z" transform="translate(-369.709 -128)" style="fill: #ed1c24"/>
  <circle cx="485.682" cy="164.698" r="54.899" style="fill: #ed1c24"/>
  <path d="M702.653,128H575.962a59.123,59.123,0,1,0,0,118.245h21.115V264.3c0,17.94,19,32.619,42.23,32.619s42.231-14.679,42.231-32.619V246.245h21.115a59.123,59.123,0,0,0,0-118.245Z" transform="translate(-369.709 -128)" style="fill: #ed1c24"/>
</svg>
