<svg xmlns="http://www.w3.org/2000/svg" viewBox="0 0 1024 384">
  <title>icontype</title>
  <path d="M756.146,179.716A17.782,17.782,0,0,1,762,193.151v45.933H747.89v-41.13a12.621,12.621,0,0,0-3.152-8.256q-2.853-3-8.557-3.152a16.91,16.91,0,0,0-13.659,6.605q-5.4,6.606-5.4,16.812v29.121h-13.96V176.94h12.609l.9,12.008a24.351,24.351,0,0,1,9.907-10.582,29.678,29.678,0,0,1,15.161-3.828Q750.439,174.538,756.146,179.716Z" style="fill: #24b588"/>
  <circle cx="657.675" cy="206.519" r="6.969" style="fill: #24b588"/>
  <path d="M691.9,207.411a33.36,33.36,0,0,0-4.277-16.812,31.12,31.12,0,0,0-12.009-11.858,35.328,35.328,0,0,0-17.638-4.353,36.171,36.171,0,0,0-17.788,4.353,31.72,31.72,0,0,0-12.308,11.933,32.564,32.564,0,0,0-4.429,16.737,33.6,33.6,0,0,0,4.429,17.413,30.413,30.413,0,0,0,12.233,11.633,34.545,34.545,0,0,0,7.754,2.951l6.017-10.716a18.55,18.55,0,0,1-6.491-2.517,20.073,20.073,0,0,1-7.205-7.806,23.547,23.547,0,0,1,0-21.616,20.86,20.86,0,0,1,7.131-7.88,18.308,18.308,0,0,1,10.207-2.928,18.706,18.706,0,0,1,14.409,6.23,21.94,21.94,0,0,1,5.705,15.386c0,5.473-1.647,9.388-5.668,16.141L646,270.78l11.522,6.469S687,225.66,687.623,224.3C691,216.949,691.9,213.617,691.9,207.411Z" style="fill: #ed1c24"/>
  <circle cx="685.106" cy="168.164" r="6.969" style="fill: #ed1c24"/>
  <path d="M665.717,147.256H649.634a7.506,7.506,0,0,0,0,15.011h2.68v2.292c0,2.278,2.413,4.141,5.361,4.141s5.361-1.863,5.361-4.141v-2.292h2.681a7.506,7.506,0,0,0,0-15.011Z" style="fill: #ed1c24"/>
  <path d="M599.586,149.02a8.588,8.588,0,0,1,5.854-2.253,8.321,8.321,0,0,1,5.779,2.253,7.464,7.464,0,0,1,0,11.107,8.324,8.324,0,0,1-5.779,2.252,8.591,8.591,0,0,1-5.854-2.252,7.319,7.319,0,0,1,0-11.107Zm12.459,27.92v62.144h-13.96V176.94Z" style="fill: #24b588"/>
  <path d="M571.668,149.62v27.469h16.963V188.2H571.668v50.886h-14.11V188.2H546.15V177.089h11.408V149.62Z" style="fill: #24b588"/>
  <path d="M534.743,176.94v62.144h-13.96V228.876a32.176,32.176,0,0,1-9.607,8.031,27.782,27.782,0,0,1-14.26,3.678,33.26,33.26,0,0,1-15.987-3.827,27.838,27.838,0,0,1-11.258-11.184q-4.129-7.353-4.127-17.563a35.594,35.594,0,0,1,4.278-17.787,30.249,30.249,0,0,1,11.558-11.709,32.143,32.143,0,0,1,16.137-4.127,26.705,26.705,0,0,1,13.81,3.452,28.163,28.163,0,0,1,9.456,9.006l1.051-9.906ZM513.8,224.749a19.047,19.047,0,0,0,6.98-11.634V200.806a19.154,19.154,0,0,0-7.506-10.732,21.71,21.71,0,0,0-13.059-4.129,20.365,20.365,0,0,0-10.282,2.7,19.859,19.859,0,0,0-7.5,7.58,21.881,21.881,0,0,0-2.777,11.033,21.558,21.558,0,0,0,2.852,10.958,21.781,21.781,0,0,0,7.655,7.88,19.807,19.807,0,0,0,10.508,2.928A20.7,20.7,0,0,0,513.8,224.749Z" style="fill: #24b588"/>
  <path d="M443.854,182.643a34.7,34.7,0,0,1,9.381-6,25.454,25.454,0,0,1,8.707-2.251l-.6,13.959a22.865,22.865,0,0,0-12.234,2.7,21.757,21.757,0,0,0-8.556,8.33,22.31,22.31,0,0,0-3.077,11.334v28.37H423.513V176.94h12.459l1.052,14.71A27.583,27.583,0,0,1,443.854,182.643Z" style="fill: #24b588"/>
  <path d="M406.7,176.94v62.144h-12.61l-.9-11.859a24.957,24.957,0,0,1-9.756,10.282,27.981,27.981,0,0,1-14.712,3.979q-8.554,0-14.034-5.179a18.625,18.625,0,0,1-5.779-13.435V176.94H362.87v40.979a13.124,13.124,0,0,0,3.078,8.33q2.776,3.078,8.331,3.228a15.4,15.4,0,0,0,9.307-3.077,21.171,21.171,0,0,0,6.68-8.481,28.484,28.484,0,0,0,2.476-12.009V176.94Z" style="fill: #24b588"/>
  <path d="M332.251,122.751V239.084h-14.11v-9.757a31.821,31.821,0,0,1-11.033,8.256,33.915,33.915,0,0,1-14.336,3,30.213,30.213,0,0,1-15.761-4.2A29.138,29.138,0,0,1,265.978,224.6,37.084,37.084,0,0,1,262,207.111a34.924,34.924,0,0,1,4.2-17.487,28.3,28.3,0,0,1,11.558-11.334,35,35,0,0,1,16.662-3.9,32.865,32.865,0,0,1,13.584,2.926,25.275,25.275,0,0,1,10.282,8.031V122.751ZM310.86,224.223a19.769,19.769,0,0,0,7.281-11.708V200.806a19.608,19.608,0,0,0-7.655-11.032,22.063,22.063,0,0,0-13.36-4.279,20.823,20.823,0,0,0-18.164,10.433,22.622,22.622,0,0,0,0,21.991,21.215,21.215,0,0,0,7.656,7.806,20.2,20.2,0,0,0,10.508,2.852A21.763,21.763,0,0,0,310.86,224.223Z" style="fill: #24b588"/>
</svg>
